<?xml version="1.0" encoding="utf-8"?>
<svg viewBox="0 0 736.593 436.409" xmlns="http://www.w3.org/2000/svg">
  <defs>
    <radialGradient gradientUnits="userSpaceOnUse" cx="253.687" cy="128.74" r="5.2" id="gradient-2" gradientTransform="matrix(1.413894, -0.924171, 1.350087, 2.06551, -199.109344, 47.105404)">
      <stop offset="0" style="stop-color: rgb(15, 25, 34);"/>
      <stop offset="1" style="stop-color: rgb(0, 0, 0); stop-opacity: 0;"/>
    </radialGradient>
    <radialGradient gradientUnits="userSpaceOnUse" cx="271.202" cy="133.553" r="38.134" id="gradient-0" gradientTransform="matrix(0.984714, 0.003227, -0.003521, 1.074035, 102.008361, -72.844826)">
      <stop offset="0" style="stop-color: rgb(242, 248, 254);"/>
      <stop offset="0.807" style="stop-color: rgb(211, 228, 239);"/>
      <stop offset="1" style="stop-color: rgb(207, 218, 223);"/>
    </radialGradient>
    <radialGradient gradientUnits="userSpaceOnUse" cx="253.687" cy="128.74" r="5.2" id="gradient-9" gradientTransform="matrix(1.413894, -0.924171, 1.350087, 2.06551, -165.742852, 75.738007)">
      <stop offset="0" style="stop-color: rgb(15, 25, 34);"/>
      <stop offset="1" style="stop-color: rgb(0, 0, 0); stop-opacity: 0;"/>
    </radialGradient>
    <radialGradient gradientUnits="userSpaceOnUse" cx="270.232" cy="161.54" r="5.422" id="gradient-8" gradientTransform="matrix(0.014369, 0.965176, -1.216729, 0.018115, 561.16706, -156.336349)">
      <stop offset="0" style="stop-color: rgb(60, 62, 65);"/>
      <stop offset="0.684" style="stop-color: rgb(60, 62, 65);"/>
      <stop offset="1" style="stop-color: rgb(0, 13, 29);"/>
    </radialGradient>
    <radialGradient gradientUnits="userSpaceOnUse" cx="336.109" cy="78.612" r="3.737" id="gradient-1" gradientTransform="matrix(0.751825, -0.072507, 0.095996, 0.995382, 72.99894, 25.421843)">
      <stop offset="0" style="stop-color: rgb(255, 255, 255);"/>
      <stop offset="0.359" style="stop-color: rgb(60, 62, 65);"/>
      <stop offset="1" style="stop-color: rgba(0, 0, 0, 1)"/>
    </radialGradient>
    <linearGradient gradientUnits="userSpaceOnUse" x1="338.81" y1="71.798" x2="338.81" y2="83.901" id="gradient-10" gradientTransform="matrix(0.952414, -0.304806, 0.303831, 0.949361, -11.587, 108.236992)">
      <stop offset="0" style="stop-color: rgb(0, 0, 0); stop-opacity: 0.29;"/>
      <stop offset="0.229" style="stop-color: rgb(0, 0, 0);"/>
      <stop offset="0.497" style="stop-color: rgb(0, 0, 0);"/>
      <stop offset="0.791" style="stop-color: rgb(0, 0, 0);"/>
      <stop offset="1" style="stop-color: rgb(0, 0, 0); stop-opacity: 0.29;"/>
    </linearGradient>
    <radialGradient gradientUnits="userSpaceOnUse" cx="335.623" cy="77.865" r="4.154" id="gradient-11" gradientTransform="matrix(-0.663268, -1.290179, 1.101055, -0.566045, 472.142578, 555.605713)">
      <stop offset="0" style="stop-color: rgb(0, 0, 0); stop-opacity: 0;"/>
      <stop offset="0.612" style="stop-color: rgb(0, 0, 0); stop-opacity: 0.86;"/>
      <stop offset="1" style="stop-color: rgb(0, 0, 0); stop-opacity: 0;"/>
    </radialGradient>
    <radialGradient gradientUnits="userSpaceOnUse" cx="335.623" cy="77.865" r="4.154" id="gradient-4" gradientTransform="matrix(-0.663268, -1.290179, 1.101055, -0.566045, 472.142578, 555.605713)">
      <stop offset="0" style="stop-color: rgb(0, 0, 0); stop-opacity: 0;"/>
      <stop offset="0.612" style="stop-color: rgb(0, 0, 0); stop-opacity: 0.86;"/>
      <stop offset="1" style="stop-color: rgb(0, 0, 0); stop-opacity: 0;"/>
    </radialGradient>
    <radialGradient gradientUnits="userSpaceOnUse" cx="336.109" cy="78.612" r="3.737" id="gradient-7" gradientTransform="matrix(0.751825, -0.072507, 0.095996, 0.995382, 72.99894, 25.421843)">
      <stop offset="0" style="stop-color: rgb(255, 255, 255);"/>
      <stop offset="0.359" style="stop-color: rgb(60, 62, 65);"/>
      <stop offset="1" style="stop-color: rgba(0, 0, 0, 1)"/>
    </radialGradient>
    <radialGradient gradientUnits="userSpaceOnUse" cx="253.687" cy="128.74" r="5.2" id="gradient-12" gradientTransform="matrix(1.413894, -0.924171, 1.350087, 2.06551, -199.109344, 47.105404)">
      <stop offset="0" style="stop-color: rgb(15, 25, 34);"/>
      <stop offset="1" style="stop-color: rgb(0, 0, 0); stop-opacity: 0;"/>
    </radialGradient>
    <linearGradient gradientUnits="userSpaceOnUse" x1="338.81" y1="71.798" x2="338.81" y2="83.901" id="gradient-13" gradientTransform="matrix(0.952414, -0.304806, 0.303831, 0.949361, -11.587, 108.236992)">
      <stop offset="0" style="stop-color: rgb(0, 0, 0); stop-opacity: 0.29;"/>
      <stop offset="0.229" style="stop-color: rgb(0, 0, 0);"/>
      <stop offset="0.497" style="stop-color: rgb(0, 0, 0);"/>
      <stop offset="0.791" style="stop-color: rgb(0, 0, 0);"/>
      <stop offset="1" style="stop-color: rgb(0, 0, 0); stop-opacity: 0.29;"/>
    </linearGradient>
  </defs>
  <g transform="matrix(1, 0, 0, 1, 12.522605, 0)">
    <title>wings</title>
    <path style="stroke: rgb(0, 0, 0); fill: rgb(255, 255, 255);" d="M 63.722 143.111 C 71.144 153.008 85.994 167.037 96.573 172.282 C 115.236 181.535 128.592 188.062 156.893 186.337 C 172.795 185.368 197.061 177.675 206.394 173.763 C 216.055 169.714 227.591 165.976 239.003 163.037 C 248.397 160.618 258.583 157.201 270.63 154.902 C 279.654 153.18 289.647 151.033 299.803 149.771 C 310.056 148.497 330.04 145.415 330.806 135.675 C 331.74 123.79 299.248 117.346 291.29 114.639 C 281.652 111.361 275.393 110.256 261.984 106.111 C 250.728 102.632 240.031 101.263 226.152 97.488 C 214.45 94.306 210.391 95.009 199.138 88.884 C 189.686 83.739 182.531 78.751 174.26 74.758 C 164.947 70.262 160.708 69.17 147.058 65.725 C 133.408 62.28 120.016 63.35 108.168 63.912 C 97.837 64.402 87.442 68.45 69.923 72.432" transform="matrix(-1, 0, 0, -1, 394.54776, 249.916527)">
      <title>left_wing</title>
    </path>
    <path style="stroke: rgb(0, 0, 0); fill: rgb(255, 255, 255);" d="M 380.722 106.806 C 388.144 96.909 402.994 82.88 413.573 77.635 C 432.236 68.382 445.592 61.855 473.893 63.58 C 489.795 64.549 514.061 72.242 523.394 76.154 C 533.055 80.203 544.591 83.941 556.003 86.88 C 565.397 89.299 575.583 92.716 587.63 95.015 C 596.654 96.737 606.647 98.884 616.803 100.146 C 627.056 101.42 647.04 104.502 647.806 114.242 C 648.74 126.127 616.248 132.571 608.29 135.278 C 598.652 138.556 592.393 139.661 578.984 143.806 C 567.728 147.285 557.031 148.654 543.152 152.429 C 531.45 155.611 527.391 154.908 516.138 161.033 C 506.686 166.178 499.531 171.166 491.26 175.159 C 481.947 179.655 477.708 180.747 464.058 184.192 C 450.408 187.637 437.016 186.567 425.168 186.005 C 414.837 185.515 404.442 181.467 386.923 177.485">
      <title>right_wing</title>
    </path>
  </g>
  <path style="stroke: rgb(0, 0, 0); fill: url(#gradient-0);" d="M 340.361 112.724 C 337.671 106.025 337.802 107.868 335.543 98.806 C 334.227 93.527 330.321 82.889 330.189 76.322 C 329.979 65.877 331.028 61.946 333.403 54.909 C 335.48 48.755 340.81 41.078 347.131 37.185 C 353.869 33.035 357.202 30.998 368.297 30.819 C 379.392 30.998 382.725 33.035 389.463 37.185 C 395.784 41.078 401.114 48.755 403.191 54.909 C 405.566 61.946 406.615 65.877 406.405 76.322 C 406.273 82.889 402.367 93.527 401.051 98.806 C 398.792 107.868 398.923 106.025 396.233 112.724">
    <title>head</title>
  </path>
  <g transform="matrix(1, 0, 0, 1, 12.455924, 0)">
    <title>eyes</title>
    <g>
      <title>left_eye</title>
      <path style="stroke-width: 0px; stroke: rgb(0, 0, 0); fill: url(#gradient-11); fill-opacity: 0.7;" d="M 333.498 83.458 C 332.365 83.272 330.725 81.858 330.251 80.917 C 329.758 79.938 329.598 79.558 329.457 78.194 C 329.309 76.768 329.512 76.069 330.29 74.96 C 330.921 74.062 331.94 73.845 332.921 73.835 C 333.956 73.824 334.698 74.138 335.412 74.715 C 336.141 75.304 336.315 75.78 337.006 76.732 C 337.444 77.337 337.75 79.195 337.717 80.575 C 337.69 81.655 337.43 83.041 336.653 83.369 C 335.462 83.872 334.887 83.688 333.498 83.458 Z">
        <title>left_eye_shadow</title>
      </path>
      <path d="M 334.718 75.127 C 336.196 75.914 336.584 76.655 336.982 77.371 C 337.38 78.087 337.612 79.537 337.644 80.518 C 337.678 81.564 337.218 82.709 336.157 82.855 C 335.012 83.012 333.77 83.037 332.929 82.434 C 332.062 81.813 331.031 80.815 330.836 79.268 C 330.65 77.797 330.614 76.323 331.987 75.388 C 332.836 74.81 333.296 74.371 334.718 75.127 Z" style="paint-order: fill; fill-rule: nonzero; stroke: url(#gradient-2); stroke-width: 0px; fill: url(#gradient-1);">
        <title>left_eye</title>
      </path>
      <path d="M 333.696 72.94 C 334.317 73.171 335.019 73.616 335.539 74.165 C 336.784 75.48 337.265 76.074 337.843 77.591 C 338.133 78.352 338.267 79.219 338.269 80.124 C 338.27 80.762 338.217 81.533 338.085 82.038 C 337.953 82.543 337.009 84.231 336.852 84.316 C 336.695 84.402 337.431 81.923 337.402 81.52 C 337.367 81.032 337.398 80.59 337.366 80.166 C 337.304 79.323 337.042 78.501 336.783 77.82 C 336.262 76.454 333.075 72.709 333.696 72.94 Z" style="fill: url(#gradient-10);">
        <title>left_eye_stroke</title>
      </path>
    </g>
    <g transform="matrix(-1, 0, 0, 1, 711.681152, 0)">
      <title>right_eye</title>
      <path style="stroke-width: 0px; stroke: rgb(0, 0, 0); fill-opacity: 0.7; fill: url(#gradient-4);" d="M 333.498 83.458 C 332.365 83.272 330.725 81.858 330.251 80.917 C 329.758 79.938 329.598 79.558 329.457 78.194 C 329.309 76.768 329.512 76.069 330.29 74.96 C 330.921 74.062 331.94 73.845 332.921 73.835 C 333.956 73.824 334.698 74.138 335.412 74.715 C 336.141 75.304 336.315 75.78 337.006 76.732 C 337.444 77.337 337.75 79.195 337.717 80.575 C 337.69 81.655 337.43 83.041 336.653 83.369 C 335.462 83.872 334.887 83.688 333.498 83.458 Z">
        <title>right_eye_shadow</title>
      </path>
      <path d="M 334.718 75.127 C 336.196 75.914 336.584 76.655 336.982 77.371 C 337.38 78.087 337.612 79.537 337.644 80.518 C 337.678 81.564 337.218 82.709 336.157 82.855 C 335.012 83.012 333.77 83.037 332.929 82.434 C 332.062 81.813 331.031 80.815 330.836 79.268 C 330.65 77.797 330.614 76.323 331.987 75.388 C 332.836 74.81 333.296 74.371 334.718 75.127 Z" style="paint-order: fill; fill-rule: nonzero; stroke-width: 0px; fill: url(#gradient-7); stroke: url(#gradient-12);">
        <title>right_eye</title>
      </path>
      <path d="M 333.696 72.94 C 334.317 73.171 335.019 73.616 335.539 74.165 C 336.784 75.48 337.265 76.074 337.843 77.591 C 338.133 78.352 338.267 79.219 338.269 80.124 C 338.27 80.762 338.217 81.533 338.085 82.038 C 337.953 82.543 337.009 84.231 336.852 84.316 C 336.695 84.402 337.431 81.923 337.402 81.52 C 337.367 81.032 337.398 80.59 337.366 80.166 C 337.304 79.323 337.042 78.501 336.783 77.82 C 336.262 76.454 333.075 72.709 333.696 72.94 Z" style="fill: url(#gradient-13);">
        <title>right_eye_stroke</title>
      </path>
    </g>
  </g>
  <path d="M 368.447 113.108 C 367.291 113.124 366.159 111.427 365.316 110.198 C 364.385 108.841 363.271 107.098 362.893 105.661 C 362.592 104.516 366.199 102.864 368.443 102.92 C 370.921 102.982 373.999 104.487 373.698 105.632 C 373.32 107.069 372.206 108.812 371.275 110.169 C 370.59 111.168 369.688 113.09 368.447 113.108 Z" style="paint-order: fill; fill-rule: nonzero; stroke-width: 0px; stroke: url(#gradient-9); fill: url(#gradient-8);">
    <title>beak</title>
  </path>
  <path style="fill: rgb(216, 216, 216); stroke: rgb(0, 0, 0);" d="M 396.783 247.917 C 399.167 253.729 404.806 267.698 408.855 275.19 C 413.245 283.314 416.065 293.593 417.349 302.906 C 418.734 312.947 421.466 319.708 417.795 323.918 C 415.046 327.071 408.069 322.827 403.936 323.471 C 397.786 324.429 398.395 326.639 390.954 327.036 C 382.942 327.464 383.753 325.031 375.771 325.708 C 375.006 325.773 370.228 328.162 368.296 327.53 C 366.364 328.162 361.586 325.773 360.821 325.708 C 352.839 325.031 353.65 327.464 345.638 327.036 C 338.197 326.639 338.806 324.429 332.656 323.471 C 328.523 322.827 321.546 327.071 318.797 323.918 C 315.126 319.708 317.858 312.947 319.243 302.906 C 320.527 293.593 323.347 283.314 327.737 275.19 C 331.786 267.698 337.425 253.729 339.809 247.917">
    <title>tail</title>
  </path>
  <path style="fill: rgb(216, 216, 216); stroke: rgb(0, 0, 0);" d="M 338.124 125.39 C 328.734 158.243 321.839 173.553 323.371 205.415 C 324.543 229.785 341.208 251.764 353.6 269.74 M 398.468 125.39 C 407.858 158.243 414.753 173.553 413.221 205.415 C 412.049 229.785 395.384 251.764 382.992 269.74">
    <title>body</title>
  </path>
  <g transform="matrix(1, 0, 0, 1, 12.494697, 0)">
    <title>claws</title>
    <g transform="matrix(1, 0, 0, 1, 89.041107, 6.78589)">
      <title>right_claw</title>
      <path style="stroke: rgb(0, 0, 0); fill: rgb(38, 43, 47);" d="M 291.837 239.345 C 290.556 240.452 287.334 240.426 286.928 238.918 C 286.667 237.956 285.333 237.192 285.776 235.019 C 286.258 232.65 286.431 230.826 286.051 229.127 C 285.785 227.931 283.668 226.038 282.551 224.916 C 281.231 223.589 281.249 220.541 280.186 218.414 C 280.032 218.109 278.86 215.076 279.283 214.653 C 279.806 214.132 280.525 212.854 282.126 213.036 C 282.745 213.105 284.736 219.144 285.61 220.261 C 286.381 221.248 287.148 223.35 288.278 223.068 C 289.553 222.749 289.278 220.038 289.355 218.901 C 289.671 214.14 288.812 208.279 289.989 207.8 C 291.843 207.047 294.377 205.227 295.959 207.785 C 296.417 208.522 292.6 223.786 294.556 223.806 C 296.937 223.828 297.943 220.981 298.806 219.166 C 299.694 217.3 300.674 212.962 303.334 214.732 C 305.6 216.238 302.165 225.553 299.775 226.968 C 299.393 227.194 297.198 228.185 294.891 229.685 C 292.334 231.347 293.832 237.622 291.837 239.345 Z">
        <title>right_claw_stem</title>
      </path>
      <path style="stroke: rgb(0, 0, 0); fill: rgb(60, 67, 72);" d="M 287.693 208.992 C 287.206 207.335 289.806 203.426 291.677 202.929 C 292.844 202.62 294.893 202.969 295.393 203.517 C 296.091 204.282 297.222 205.65 297.599 206.756 C 298.08 208.172 297.072 209.95 296.895 210.868 C 296.628 212.243 292.776 217.638 291.321 219.482 C 290.547 220.462 290.85 216.611 290.81 215.244 C 290.771 213.888 290.684 212.574 290.186 211.5 C 289.735 210.525 287.858 209.551 287.693 208.992 Z">
        <title>right_claw_talon_top</title>
      </path>
      <path style="stroke: rgb(0, 0, 0); fill: rgb(60, 67, 72);" d="M 298.438 214.055 C 298.141 212.152 299.916 211.536 301.461 211.404 C 302.805 211.29 304.125 211.313 304.796 212.103 C 305.483 212.912 305.645 214.442 305.477 215.488 C 305.285 216.673 304.838 218.621 304.29 219.358 C 303.617 220.261 300.755 223.641 300.131 223.908 C 298.405 224.647 299.741 221.591 300.008 220.551 C 300.445 218.84 300.355 218.592 300.198 217.523 C 300.017 216.29 298.706 215.775 298.438 214.055 Z">
        <title>right_claw_talon_out</title>
      </path>
      <path style="stroke: rgb(0, 0, 0); fill: rgb(60, 67, 72);" d="M 278.706 214.868 C 278.969 214.071 278.771 212.876 280.573 212.421 C 281.298 212.238 282.631 212.312 283.616 212.784 C 284.456 213.187 284.85 213.714 285.559 215.345 C 286.269 216.976 285.904 217.33 285.995 218.5 C 286.1 219.847 286.315 221.81 285.522 221.977 C 284.798 222.129 283.26 219.147 282.574 218.784 C 281.593 218.264 280.453 219.293 279.789 218.179 C 279.061 216.959 278.39 215.825 278.706 214.868 Z">
        <title>right_claw_talon_in</title>
      </path>
      <path style="stroke: rgb(0, 0, 0); fill: rgb(60, 67, 72);" d="M 288.855 233.94 C 289.756 232.055 289.793 227.381 290.687 227.244 C 291.718 227.084 293.295 231.824 293.66 233.303 C 293.999 234.689 294.231 237.11 293.586 238.57 C 293.022 239.852 292.236 240.894 289.893 240.757 C 288.279 240.664 287.042 239.408 287.01 238.225 C 286.97 236.774 288.086 235.546 288.855 233.94 Z">
        <title>right_claw_talon_bot</title>
      </path>
    </g>
    <g transform="matrix(1, 0, 0, 1, 89.041107, 6.78589)">
      <title>left_claw</title>
      <path style="stroke: rgb(0, 0, 0); fill: rgb(38, 43, 47);" d="M 242.092 207.055 C 240.811 205.948 237.589 205.974 237.183 207.482 C 236.922 208.444 235.588 209.208 236.031 211.381 C 236.513 213.75 236.686 215.574 236.306 217.273 C 236.04 218.469 233.923 220.362 232.806 221.484 C 231.486 222.811 231.504 225.859 230.441 227.986 C 230.287 228.291 229.115 231.324 229.538 231.747 C 230.061 232.268 230.78 233.546 232.381 233.364 C 233 233.295 234.991 227.256 235.865 226.139 C 236.636 225.152 237.403 223.05 238.533 223.332 C 239.808 223.651 239.533 226.362 239.61 227.499 C 239.926 232.26 239.067 238.121 240.244 238.6 C 242.098 239.353 244.632 241.173 246.214 238.615 C 246.672 237.878 242.855 222.614 244.811 222.594 C 247.192 222.572 248.198 225.419 249.061 227.234 C 249.949 229.1 250.929 233.438 253.589 231.668 C 255.855 230.162 252.42 220.847 250.03 219.432 C 249.648 219.206 247.453 218.215 245.146 216.715 C 242.589 215.053 244.087 208.778 242.092 207.055 Z" transform="matrix(-1, 0, 0, -1, 483.776367, 446.213928)">
        <title>left_claw_stem</title>
      </path>
      <path style="stroke: rgb(0, 0, 0); fill: rgb(60, 67, 72);" d="M 235.853 213.275 C 235.366 214.932 237.966 218.841 239.837 219.338 C 241.004 219.647 243.053 219.298 243.553 218.75 C 244.251 217.985 245.382 216.617 245.759 215.511 C 246.24 214.095 245.232 212.317 245.055 211.399 C 244.788 210.024 240.936 204.629 239.481 202.785 C 238.707 201.805 239.01 205.656 238.97 207.023 C 238.931 208.379 238.844 209.693 238.346 210.767 C 237.895 211.742 236.018 212.716 235.853 213.275 Z" transform="matrix(-1, 0, 0, -1, 481.681183, 422.080887)">
        <title>left_claw_talon_top</title>
      </path>
      <path style="stroke: rgb(0, 0, 0); fill: rgb(60, 67, 72);" d="M 228.016 221.135 C 227.719 223.038 229.494 223.654 231.039 223.786 C 232.383 223.9 233.703 223.877 234.374 223.087 C 235.061 222.278 235.223 220.748 235.055 219.702 C 234.863 218.517 234.416 216.569 233.868 215.832 C 233.195 214.929 230.333 211.549 229.709 211.282 C 227.983 210.543 229.319 213.599 229.586 214.639 C 230.023 216.35 229.933 216.598 229.776 217.667 C 229.595 218.9 228.284 219.415 228.016 221.135 Z" transform="matrix(-1, 0, 0, -1, 463.099411, 435.004059)">
        <title>left_claw_talon_out</title>
      </path>
      <path style="stroke: rgb(0, 0, 0); fill: rgb(60, 67, 72);" d="M 247.499 219.257 C 247.762 220.054 247.564 221.249 249.366 221.704 C 250.091 221.887 251.424 221.813 252.409 221.341 C 253.249 220.938 253.643 220.411 254.352 218.78 C 255.062 217.149 254.697 216.795 254.788 215.625 C 254.893 214.278 255.108 212.315 254.315 212.148 C 253.591 211.996 252.053 214.978 251.367 215.341 C 250.386 215.861 249.246 214.832 248.582 215.946 C 247.854 217.166 247.183 218.3 247.499 219.257 Z" transform="matrix(-1, 0, 0, -1, 502.314484, 433.938522)">
        <title>left_claw_talon_in</title>
      </path>
      <path style="stroke: rgb(0, 0, 0); fill: rgb(60, 67, 72);" d="M 241.373 233.883 C 242.274 235.768 242.311 240.442 243.205 240.579 C 244.236 240.739 245.813 235.999 246.178 234.52 C 246.517 233.134 246.749 230.713 246.104 229.253 C 245.54 227.971 244.754 226.929 242.411 227.066 C 240.797 227.159 239.56 228.415 239.528 229.598 C 239.488 231.049 240.604 232.277 241.373 233.883 Z" transform="matrix(-1, 0, 0, -1, 486.039276, 467.63681)">
        <title>left_claw_talon_bot</title>
      </path>
    </g>
  </g>
</svg>