<?xml version="1.0" encoding="utf-8"?>
<svg viewBox="0 0 736.593 436.409" xmlns="http://www.w3.org/2000/svg">
  <defs>
    <radialGradient gradientUnits="userSpaceOnUse" cx="253.687" cy="128.74" r="5.2" id="gradient-2" gradientTransform="matrix(1.413894, -0.924171, 1.350087, 2.06551, -195.84079, 46.432466)">
      <stop offset="0" style="stop-color: rgb(15, 25, 34);"/>
      <stop offset="1" style="stop-color: rgb(0, 0, 0); stop-opacity: 0;"/>
    </radialGradient>
    <radialGradient gradientUnits="userSpaceOnUse" cx="253.223" cy="132.271" r="4.957" id="gradient-1" gradientTransform="matrix(-0.587134, -0.822045, 0.604088, -0.431457, 405.863098, 343.795381)">
      <stop offset="0" style="stop-color: rgb(134, 134, 134);"/>
      <stop offset="0.32" style="stop-color: rgb(60, 62, 65);"/>
      <stop offset="0.925" style="stop-color: rgb(0, 13, 29);"/>
      <stop offset="1" style="stop-color: rgb(0, 13, 29); stop-opacity: 0;"/>
    </radialGradient>
    <radialGradient gradientUnits="userSpaceOnUse" cx="271.202" cy="133.553" r="38.134" id="gradient-0" gradientTransform="matrix(0.984714, 0.003227, -0.003521, 1.074035, 89.182262, -72.844824)">
      <stop offset="0" style="stop-color: rgb(242, 248, 254);"/>
      <stop offset="0.807" style="stop-color: rgb(211, 228, 239);"/>
      <stop offset="1" style="stop-color: rgb(207, 218, 223);"/>
    </radialGradient>
    <radialGradient gradientUnits="userSpaceOnUse" cx="254.159" cy="136.681" r="5.769" id="gradient-4" gradientTransform="matrix(-0.93946, -0.938226, 0.728945, -0.729904, 475.771759, 416.0524)">
      <stop offset="0" style="stop-color: rgb(122, 115, 115); stop-opacity: 0;"/>
      <stop offset="0.208" style="stop-color: rgb(109, 103, 103); stop-opacity: 0;"/>
      <stop offset="0.422" style="stop-color: rgb(85, 80, 80); stop-opacity: 0.62;"/>
      <stop offset="1" style="stop-color: rgb(70, 66, 66); stop-opacity: 0;"/>
    </radialGradient>
    <radialGradient gradientUnits="userSpaceOnUse" cx="254.159" cy="136.681" r="5.769" id="gradient-3" gradientTransform="matrix(-0.93946, 0.938226, 0.728945, 0.729904, 512.120972, -260.977737)">
      <stop offset="0" style="stop-color: rgb(122, 115, 115); stop-opacity: 0;"/>
      <stop offset="0.208" style="stop-color: rgb(109, 103, 103); stop-opacity: 0;"/>
      <stop offset="0.422" style="stop-color: rgb(85, 80, 80); stop-opacity: 0.62;"/>
      <stop offset="1" style="stop-color: rgb(70, 66, 66); stop-opacity: 0;"/>
    </radialGradient>
    <radialGradient gradientUnits="userSpaceOnUse" cx="253.223" cy="132.271" r="4.957" id="gradient-5" gradientTransform="matrix(-0.576985, 0.822045, 0.607616, 0.426475, 439.310822, -188.061981)">
      <stop offset="0" style="stop-color: rgb(134, 134, 134);"/>
      <stop offset="0.32" style="stop-color: rgb(60, 62, 65);"/>
      <stop offset="0.925" style="stop-color: rgb(0, 13, 29);"/>
      <stop offset="1" style="stop-color: rgb(0, 13, 29); stop-opacity: 0;"/>
    </radialGradient>
    <radialGradient gradientUnits="userSpaceOnUse" cx="253.687" cy="128.74" r="5.2" id="gradient-6" gradientTransform="matrix(1.413894, 0.924171, 1.350087, -2.06551, -159.356384, 108.641937)">
      <stop offset="0" style="stop-color: rgb(15, 25, 34);"/>
      <stop offset="1" style="stop-color: rgb(0, 0, 0); stop-opacity: 0;"/>
    </radialGradient>
    <radialGradient gradientUnits="userSpaceOnUse" cx="253.687" cy="128.74" r="5.2" id="gradient-9" gradientTransform="matrix(1.413894, -0.924171, 1.350087, 2.06551, -180.475464, 75.738008)">
      <stop offset="0" style="stop-color: rgb(15, 25, 34);"/>
      <stop offset="1" style="stop-color: rgb(0, 0, 0); stop-opacity: 0;"/>
    </radialGradient>
    <radialGradient gradientUnits="userSpaceOnUse" cx="270.232" cy="161.54" r="5.422" id="gradient-8" gradientTransform="matrix(0.014369, 0.965176, -1.216729, 0.018115, 546.434418, -156.336348)">
      <stop offset="0" style="stop-color: rgb(60, 62, 65);"/>
      <stop offset="0.684" style="stop-color: rgb(60, 62, 65);"/>
      <stop offset="1" style="stop-color: rgb(0, 13, 29);"/>
    </radialGradient>
  </defs>
  <path style="stroke: rgb(0, 0, 0); fill: rgb(255, 255, 255);" d="M 63.722 143.111 C 71.144 153.008 85.994 167.037 96.573 172.282 C 115.236 181.535 128.592 188.062 156.893 186.337 C 172.795 185.368 197.061 177.675 206.394 173.763 C 216.055 169.714 227.591 165.976 239.003 163.037 C 248.397 160.618 258.583 157.201 270.63 154.902 C 279.654 153.18 289.647 151.033 299.803 149.771 C 310.056 148.497 330.04 145.415 330.806 135.675 C 331.74 123.79 299.248 117.346 291.29 114.639 C 281.652 111.361 275.393 110.256 261.984 106.111 C 250.728 102.632 240.031 101.263 226.152 97.488 C 214.45 94.306 210.391 95.009 199.138 88.884 C 189.686 83.739 182.531 78.751 174.26 74.758 C 164.947 70.262 160.708 69.17 147.058 65.725 C 133.408 62.28 120.016 63.35 108.168 63.912 C 97.837 64.402 87.442 68.45 69.923 72.432" transform="matrix(-1, 0, 0, -1, 394.54776, 249.916527)">
    <title>left_wing</title>
  </path>
  <path style="stroke: rgb(0, 0, 0); fill: rgb(255, 255, 255);" d="M 380.722 106.806 C 388.144 96.909 402.994 82.88 413.573 77.635 C 432.236 68.382 445.592 61.855 473.893 63.58 C 489.795 64.549 514.061 72.242 523.394 76.154 C 533.055 80.203 544.591 83.941 556.003 86.88 C 565.397 89.299 575.583 92.716 587.63 95.015 C 596.654 96.737 606.647 98.884 616.803 100.146 C 627.056 101.42 647.04 104.502 647.806 114.242 C 648.74 126.127 616.248 132.571 608.29 135.278 C 598.652 138.556 592.393 139.661 578.984 143.806 C 567.728 147.285 557.031 148.654 543.152 152.429 C 531.45 155.611 527.391 154.908 516.138 161.033 C 506.686 166.178 499.531 171.166 491.26 175.159 C 481.947 179.655 477.708 180.747 464.058 184.192 C 450.408 187.637 437.016 186.567 425.168 186.005 C 414.837 185.515 404.442 181.467 386.923 177.485">
    <title>right_wing</title>
  </path>
  <path style="stroke: rgb(0, 0, 0); fill: url(#gradient-0);" d="M 327.534 112.724 C 324.844 106.025 324.975 107.868 322.716 98.806 C 321.4 93.527 317.494 82.889 317.362 76.322 C 317.152 65.877 318.201 61.946 320.576 54.909 C 322.653 48.755 327.983 41.078 334.304 37.185 C 341.042 33.035 344.375 30.998 355.47 30.819 C 366.565 30.998 369.898 33.035 376.636 37.185 C 382.957 41.078 388.287 48.755 390.364 54.909 C 392.739 61.946 393.788 65.877 393.578 76.322 C 393.446 82.889 389.54 93.527 388.224 98.806 C 385.965 107.868 386.096 106.025 383.406 112.724">
    <title>head</title>
  </path>
  <path style="stroke: rgb(0, 0, 0); stroke-width: 0px; fill: url(#gradient-4);" d="M 332.744 77.463 C 332.691 76.27 331.095 73.949 331.587 73.241 C 332.132 72.457 334.229 72.597 334.664 72.714 C 335.722 73 336.767 73.167 337.565 73.565 C 338.745 74.153 339.506 74.706 340.18 76.034 C 340.94 77.532 341.2 78.357 341.121 80.13 C 341.121 80.13 341.419 81.96 340.592 82.36 C 340.224 82.538 339.463 82.439 338.135 82.22 C 336.425 81.939 335.076 81.259 333.924 80.205">
    <title>left_eye_shadow</title>
  </path>
  <path d="M 337.047 73.515 C 338.866 74.155 338.502 74.102 339.487 75.641 C 340.472 77.18 340.704 79.04 340.736 80.021 C 340.77 81.067 340.977 82.09 339.916 82.236 C 338.771 82.393 337.533 82.061 336.784 81.879 C 335.224 81.499 333.594 80.076 333.109 78.337 C 332.791 77.197 330.816 74.794 332.308 73.613 C 333.833 72.406 334.689 72.685 337.047 73.515 Z" style="paint-order: fill; fill-rule: nonzero; stroke: url(#gradient-2); fill: url(#gradient-1); stroke-width: 0px;">
    <title>left_eye</title>
  </path>
  <path style="stroke: rgb(0, 0, 0); stroke-width: 0px; fill: url(#gradient-3);" d="M 369.095 77.612 C 369.042 78.805 367.446 81.126 367.938 81.834 C 368.483 82.618 370.58 82.478 371.015 82.361 C 372.073 82.075 373.118 81.908 373.916 81.51 C 375.096 80.922 375.857 80.369 376.531 79.041 C 377.291 77.543 377.551 76.718 377.472 74.945 C 377.472 74.945 377.77 73.115 376.943 72.715 C 376.575 72.537 375.814 72.636 374.486 72.855 C 372.776 73.136 371.427 73.816 370.275 74.87" transform="matrix(-1, 0, 0, -1, 745.368225, 155.075523)">
    <title>right_eye_shadow</title>
  </path>
  <path d="M 373.533 81.56 C 375.352 80.92 374.988 80.973 375.973 79.434 C 376.958 77.895 377.19 76.035 377.222 75.054 C 377.256 74.008 377.463 72.985 376.402 72.839 C 375.257 72.682 374.019 73.014 373.27 73.196 C 371.71 73.576 370.08 74.999 369.595 76.738 C 369.277 77.878 367.302 80.281 368.794 81.462 C 370.319 82.669 371.175 82.39 373.533 81.56 Z" style="paint-order: fill; fill-rule: nonzero; stroke-width: 0px; fill: url(#gradient-5); stroke: url(#gradient-6);" transform="matrix(-1, 0, 0, -1, 745.503448, 155.074394)">
    <title>right_eye</title>
  </path>
  <path d="M 353.714 113.108 C 352.558 113.124 351.426 111.427 350.583 110.198 C 349.652 108.841 348.538 107.098 348.16 105.661 C 347.859 104.516 351.466 102.864 353.71 102.92 C 356.188 102.982 359.266 104.487 358.965 105.632 C 358.587 107.069 357.473 108.812 356.542 110.169 C 355.857 111.168 354.955 113.09 353.714 113.108 Z" style="paint-order: fill; fill-rule: nonzero; stroke-width: 0px; stroke: url(#gradient-9); fill: url(#gradient-8);">
    <title>beak</title>
  </path>
  <path style="fill: rgb(216, 216, 216); stroke: rgb(0, 0, 0);" d="M 385.013 247.917 C 387.397 253.729 393.036 267.698 397.085 275.19 C 401.475 283.314 404.295 293.593 405.579 302.906 C 406.964 312.947 409.696 319.708 406.025 323.918 C 403.276 327.071 396.299 322.827 392.166 323.471 C 386.016 324.429 386.625 326.639 379.184 327.036 C 371.172 327.464 371.983 325.031 364.001 325.708 C 363.236 325.773 358.458 328.162 356.526 327.53 C 354.594 328.162 349.816 325.773 349.051 325.708 C 341.069 325.031 341.88 327.464 333.868 327.036 C 326.427 326.639 327.036 324.429 320.886 323.471 C 316.753 322.827 309.776 327.071 307.027 323.918 C 303.356 319.708 306.088 312.947 307.473 302.906 C 308.757 293.593 311.577 283.314 315.967 275.19 C 320.016 267.698 325.655 253.729 328.039 247.917">
    <title>tail</title>
  </path>
  <path style="fill: rgb(216, 216, 216); stroke: rgb(0, 0, 0);" d="M 324.865 125.39 C 315.475 158.243 308.58 173.553 310.112 205.415 C 311.284 229.785 327.949 251.764 340.341 269.74 M 385.209 125.39 C 394.599 158.243 401.494 173.553 399.962 205.415 C 398.79 229.785 382.125 251.764 369.733 269.74">
    <title>body</title>
  </path>
  <g transform="matrix(1, 0, 0, 1, 89.041107, 6.78589)">
    <title>right_claw</title>
    <path style="stroke: rgb(0, 0, 0); fill: rgb(38, 43, 47);" d="M 291.837 239.345 C 290.556 240.452 287.334 240.426 286.928 238.918 C 286.667 237.956 285.333 237.192 285.776 235.019 C 286.258 232.65 286.431 230.826 286.051 229.127 C 285.785 227.931 283.668 226.038 282.551 224.916 C 281.231 223.589 281.249 220.541 280.186 218.414 C 280.032 218.109 278.86 215.076 279.283 214.653 C 279.806 214.132 280.525 212.854 282.126 213.036 C 282.745 213.105 284.736 219.144 285.61 220.261 C 286.381 221.248 287.148 223.35 288.278 223.068 C 289.553 222.749 289.278 220.038 289.355 218.901 C 289.671 214.14 288.812 208.279 289.989 207.8 C 291.843 207.047 294.377 205.227 295.959 207.785 C 296.417 208.522 292.6 223.786 294.556 223.806 C 296.937 223.828 297.943 220.981 298.806 219.166 C 299.694 217.3 300.674 212.962 303.334 214.732 C 305.6 216.238 302.165 225.553 299.775 226.968 C 299.393 227.194 297.198 228.185 294.891 229.685 C 292.334 231.347 293.832 237.622 291.837 239.345 Z">
      <title>right_claw_stem</title>
    </path>
    <path style="stroke: rgb(0, 0, 0); fill: rgb(60, 67, 72);" d="M 287.693 208.992 C 287.206 207.335 289.806 203.426 291.677 202.929 C 292.844 202.62 294.893 202.969 295.393 203.517 C 296.091 204.282 297.222 205.65 297.599 206.756 C 298.08 208.172 297.072 209.95 296.895 210.868 C 296.628 212.243 292.776 217.638 291.321 219.482 C 290.547 220.462 290.85 216.611 290.81 215.244 C 290.771 213.888 290.684 212.574 290.186 211.5 C 289.735 210.525 287.858 209.551 287.693 208.992 Z">
      <title>right_claw_talon_top</title>
    </path>
    <path style="stroke: rgb(0, 0, 0); fill: rgb(60, 67, 72);" d="M 298.438 214.055 C 298.141 212.152 299.916 211.536 301.461 211.404 C 302.805 211.29 304.125 211.313 304.796 212.103 C 305.483 212.912 305.645 214.442 305.477 215.488 C 305.285 216.673 304.838 218.621 304.29 219.358 C 303.617 220.261 300.755 223.641 300.131 223.908 C 298.405 224.647 299.741 221.591 300.008 220.551 C 300.445 218.84 300.355 218.592 300.198 217.523 C 300.017 216.29 298.706 215.775 298.438 214.055 Z">
      <title>right_claw_talon_out</title>
    </path>
    <path style="stroke: rgb(0, 0, 0); fill: rgb(60, 67, 72);" d="M 278.706 214.868 C 278.969 214.071 278.771 212.876 280.573 212.421 C 281.298 212.238 282.631 212.312 283.616 212.784 C 284.456 213.187 284.85 213.714 285.559 215.345 C 286.269 216.976 285.904 217.33 285.995 218.5 C 286.1 219.847 286.315 221.81 285.522 221.977 C 284.798 222.129 283.26 219.147 282.574 218.784 C 281.593 218.264 280.453 219.293 279.789 218.179 C 279.061 216.959 278.39 215.825 278.706 214.868 Z">
      <title>right_claw_talon_in</title>
    </path>
    <path style="stroke: rgb(0, 0, 0); fill: rgb(60, 67, 72);" d="M 288.855 233.94 C 289.756 232.055 289.793 227.381 290.687 227.244 C 291.718 227.084 293.295 231.824 293.66 233.303 C 293.999 234.689 294.231 237.11 293.586 238.57 C 293.022 239.852 292.236 240.894 289.893 240.757 C 288.279 240.664 287.042 239.408 287.01 238.225 C 286.97 236.774 288.086 235.546 288.855 233.94 Z">
      <title>right_claw_talon_bot</title>
    </path>
  </g>
  <g transform="matrix(1, 0, 0, 1, 89.041107, 6.78589)">
    <title>left_claw</title>
    <path style="stroke: rgb(0, 0, 0); fill: rgb(38, 43, 47);" d="M 242.092 207.055 C 240.811 205.948 237.589 205.974 237.183 207.482 C 236.922 208.444 235.588 209.208 236.031 211.381 C 236.513 213.75 236.686 215.574 236.306 217.273 C 236.04 218.469 233.923 220.362 232.806 221.484 C 231.486 222.811 231.504 225.859 230.441 227.986 C 230.287 228.291 229.115 231.324 229.538 231.747 C 230.061 232.268 230.78 233.546 232.381 233.364 C 233 233.295 234.991 227.256 235.865 226.139 C 236.636 225.152 237.403 223.05 238.533 223.332 C 239.808 223.651 239.533 226.362 239.61 227.499 C 239.926 232.26 239.067 238.121 240.244 238.6 C 242.098 239.353 244.632 241.173 246.214 238.615 C 246.672 237.878 242.855 222.614 244.811 222.594 C 247.192 222.572 248.198 225.419 249.061 227.234 C 249.949 229.1 250.929 233.438 253.589 231.668 C 255.855 230.162 252.42 220.847 250.03 219.432 C 249.648 219.206 247.453 218.215 245.146 216.715 C 242.589 215.053 244.087 208.778 242.092 207.055 Z" transform="matrix(-1, 0, 0, -1, 483.776367, 446.213928)">
      <title>left_claw_stem</title>
    </path>
    <path style="stroke: rgb(0, 0, 0); fill: rgb(60, 67, 72);" d="M 235.853 213.275 C 235.366 214.932 237.966 218.841 239.837 219.338 C 241.004 219.647 243.053 219.298 243.553 218.75 C 244.251 217.985 245.382 216.617 245.759 215.511 C 246.24 214.095 245.232 212.317 245.055 211.399 C 244.788 210.024 240.936 204.629 239.481 202.785 C 238.707 201.805 239.01 205.656 238.97 207.023 C 238.931 208.379 238.844 209.693 238.346 210.767 C 237.895 211.742 236.018 212.716 235.853 213.275 Z" transform="matrix(-1, 0, 0, -1, 481.681183, 422.080887)">
      <title>left_claw_talon_top</title>
    </path>
    <path style="stroke: rgb(0, 0, 0); fill: rgb(60, 67, 72);" d="M 228.016 221.135 C 227.719 223.038 229.494 223.654 231.039 223.786 C 232.383 223.9 233.703 223.877 234.374 223.087 C 235.061 222.278 235.223 220.748 235.055 219.702 C 234.863 218.517 234.416 216.569 233.868 215.832 C 233.195 214.929 230.333 211.549 229.709 211.282 C 227.983 210.543 229.319 213.599 229.586 214.639 C 230.023 216.35 229.933 216.598 229.776 217.667 C 229.595 218.9 228.284 219.415 228.016 221.135 Z" transform="matrix(-1, 0, 0, -1, 463.099411, 435.004059)">
      <title>left_claw_talon_out</title>
    </path>
    <path style="stroke: rgb(0, 0, 0); fill: rgb(60, 67, 72);" d="M 247.499 219.257 C 247.762 220.054 247.564 221.249 249.366 221.704 C 250.091 221.887 251.424 221.813 252.409 221.341 C 253.249 220.938 253.643 220.411 254.352 218.78 C 255.062 217.149 254.697 216.795 254.788 215.625 C 254.893 214.278 255.108 212.315 254.315 212.148 C 253.591 211.996 252.053 214.978 251.367 215.341 C 250.386 215.861 249.246 214.832 248.582 215.946 C 247.854 217.166 247.183 218.3 247.499 219.257 Z" transform="matrix(-1, 0, 0, -1, 502.314484, 433.938522)">
      <title>left_claw_talon_in</title>
    </path>
    <path style="stroke: rgb(0, 0, 0); fill: rgb(60, 67, 72);" d="M 241.373 233.883 C 242.274 235.768 242.311 240.442 243.205 240.579 C 244.236 240.739 245.813 235.999 246.178 234.52 C 246.517 233.134 246.749 230.713 246.104 229.253 C 245.54 227.971 244.754 226.929 242.411 227.066 C 240.797 227.159 239.56 228.415 239.528 229.598 C 239.488 231.049 240.604 232.277 241.373 233.883 Z" transform="matrix(-1, 0, 0, -1, 486.039276, 467.63681)">
      <title>left_claw_talon_bot</title>
    </path>
  </g>
</svg>